<svg xmlns="http://www.w3.org/2000/svg" viewBox="0 0 720 280" role="img" aria-label="CRM migration cutover diagram">
  <rect width="720" height="280" fill="#060908"/>
  <text x="24" y="36" fill="#c9ff3d" font-family="ui-monospace, monospace" font-size="14">CRM migration · zero-downtime cutover</text>

  <rect x="24" y="70" width="160" height="72" rx="10" fill="#0e1411" stroke="rgba(255,255,255,0.14)"/>
  <text x="104" y="100" text-anchor="middle" fill="rgba(255,255,255,0.92)" font-family="ui-sans-serif, system-ui" font-size="15">Exasol</text>
  <text x="104" y="120" text-anchor="middle" fill="rgba(255,255,255,0.72)" font-family="ui-monospace, monospace" font-size="11">legacy warehouse</text>

  <path d="M196 106 H260" stroke="#c9ff3d" stroke-width="2"/>
  <polygon points="260,100 274,106 260,112" fill="#c9ff3d"/>

  <rect x="286" y="58" width="180" height="96" rx="10" fill="#0e1411" stroke="#c9ff3d"/>
  <text x="376" y="88" text-anchor="middle" fill="#c9ff3d" font-family="ui-monospace, monospace" font-size="12">PARALLEL RUN</text>
  <text x="376" y="110" text-anchor="middle" fill="rgba(255,255,255,0.92)" font-family="ui-sans-serif, system-ui" font-size="14">Python + stages</text>
  <text x="376" y="130" text-anchor="middle" fill="rgba(255,255,255,0.72)" font-family="ui-monospace, monospace" font-size="11">idempotent CI/CD</text>

  <path d="M478 106 H542" stroke="#c9ff3d" stroke-width="2"/>
  <polygon points="542,100 556,106 542,112" fill="#c9ff3d"/>

  <rect x="568" y="70" width="128" height="72" rx="10" fill="#0e1411" stroke="rgba(255,255,255,0.14)"/>
  <text x="632" y="100" text-anchor="middle" fill="rgba(255,255,255,0.92)" font-family="ui-sans-serif, system-ui" font-size="15">Snowflake</text>
  <text x="632" y="120" text-anchor="middle" fill="rgba(255,255,255,0.72)" font-family="ui-monospace, monospace" font-size="11">Data Vault 2.0</text>

  <rect x="24" y="186" width="672" height="64" rx="10" fill="#0e1411" stroke="rgba(255,255,255,0.08)"/>
  <text x="48" y="214" fill="rgba(255,255,255,0.72)" font-family="ui-monospace, monospace" font-size="12">reporting stays live</text>
  <text x="240" y="214" fill="rgba(255,255,255,0.72)" font-family="ui-monospace, monospace" font-size="12">hub / link / satellite</text>
  <text x="460" y="214" fill="rgba(255,255,255,0.72)" font-family="ui-monospace, monospace" font-size="12">cutover after sync</text>
  <text x="48" y="234" fill="#c9ff3d" font-family="ui-monospace, monospace" font-size="12">10B+ records · zero reporting blackout</text>
</svg>
